<svg version="1.1" id="Layer_1" xmlns="http://www.w3.org/2000/svg" xmlns:xlink="http://www.w3.org/1999/xlink" x="0px" y="0px"
	 width="100%" viewBox="0 0 318 159" enable-background="new 0 0 318 159" xml:space="preserve">
<path fill="#00B5E2" opacity="1.000000" stroke="none" 
	d="
M1.000000,54.000000 
	C1.000000,36.351578 1.000000,18.703154 1.000005,1.056458 
	C107.000015,1.058185 213.000015,1.058185 319.000000,1.058185 
	C319.000000,18.431808 319.000000,35.747246 318.531342,53.531952 
	C297.956329,54.001266 277.849915,53.982964 257.743591,54.005669 
	C227.504211,54.039818 197.264862,54.102669 166.568512,54.077248 
	C162.406891,54.052971 158.702286,54.104767 154.572845,54.089622 
	C152.432861,54.067310 150.717682,54.111931 148.549484,54.079556 
	C144.727646,54.052811 141.358856,54.103062 137.526062,54.086117 
	C91.708038,54.012615 46.354019,54.006310 1.000000,54.000000 
z"/>
<path fill="#509E2F" opacity="1.000000" stroke="none" 
	d="
M319.000000,108.000000 
	C319.000000,125.315346 319.000000,142.630692 319.000000,159.944138 
	C212.999985,159.942230 106.999985,159.942230 1.000000,159.942230 
	C1.000000,142.902069 1.000000,125.919693 1.176962,108.346764 
	C1.580643,107.579102 1.786460,107.380356 2.437838,107.094826 
	C107.116577,107.018013 211.328857,107.005943 315.541138,107.001495 
	C316.370331,107.001457 317.199493,107.104866 318.175201,107.317169 
	C318.528107,107.674995 318.754211,107.850212 319.000000,108.000000 
z"/>
<path fill="#EF3340" opacity="1.000000" stroke="none" 
	d="
M318.028687,107.159966 
	C317.199493,107.104866 316.370331,107.001457 315.541138,107.001495 
	C211.328857,107.005943 107.116577,107.018013 2.198061,107.036118 
	C1.491819,107.042549 1.000000,107.000000 1.000000,107.000000 
	C1.000000,89.979103 1.000000,72.958214 1.468657,55.468742 
	C45.008446,55.000206 88.079597,55.013138 131.150665,54.964195 
	C133.430771,54.961605 135.710266,54.435631 137.990051,54.153313 
	C141.358856,54.103062 144.727646,54.052811 148.577454,54.500175 
	C149.107788,55.557693 149.157104,56.117588 148.867249,56.803692 
	C137.413849,58.973625 130.083450,66.456863 128.222641,77.369370 
	C127.037498,84.319405 130.961014,97.301849 139.586594,101.395409 
	C147.793671,105.290359 158.350861,106.571510 166.660339,98.700745 
	C155.804001,101.674965 146.433823,100.573448 140.407639,90.611618 
	C136.319077,83.852837 136.477737,76.641762 140.721252,69.840652 
	C146.696701,60.263752 156.023941,60.596905 165.999115,60.580067 
	C162.271011,59.266144 158.542892,57.952221 154.847412,56.224823 
	C154.919250,55.259747 154.958450,54.708157 154.997665,54.156563 
	C158.702286,54.104767 162.406891,54.052971 166.933502,54.263054 
	C169.900375,54.683384 172.045166,54.978985 174.190140,54.980145 
	C222.460083,55.006287 270.730042,55.000095 319.000000,55.000000 
	C319.000000,72.020897 319.000000,89.041786 318.754089,106.552612 
	C318.508179,107.042549 318.028687,107.159966 318.028687,107.159966 
M186.849762,82.253517 
	C188.145935,81.744110 189.442108,81.234711 191.207855,80.540756 
	C188.751907,79.410416 186.866074,78.542480 185.089233,77.724701 
	C185.823776,75.701004 186.417511,74.065247 187.278870,71.692169 
	C184.761581,72.663414 183.026794,73.332756 181.212219,74.032867 
	C180.282669,71.866722 179.514435,70.076485 178.272324,67.181961 
	C177.613998,73.624588 174.450211,74.236168 169.658463,71.811317 
	C170.671143,74.254074 171.351501,75.895187 172.114426,77.735474 
	C170.065216,78.694168 168.230560,79.552490 164.770050,81.171448 
	C172.343124,81.139122 171.783661,84.826706 169.798004,89.713776 
	C175.316742,85.945602 177.240845,88.590515 178.491104,93.689468 
	C179.818268,88.549583 181.938629,85.948303 186.213898,88.826622 
	C186.213898,86.600410 186.213898,84.610336 186.849762,82.253517 
z"/>
<path fill="#F42934" opacity="1.000000" stroke="none" 
	d="
M319.000000,54.750000 
	C270.730042,55.000095 222.460083,55.006287 174.190140,54.980145 
	C172.045166,54.978985 169.900375,54.683384 167.390503,54.339127 
	C197.264862,54.102669 227.504211,54.039818 257.743591,54.005669 
	C277.849915,53.982964 297.956329,54.001266 318.531342,54.000610 
	C319.000000,54.000000 319.000000,54.500000 319.000000,54.750000 
z"/>
<path fill="#F42934" opacity="1.000000" stroke="none" 
	d="
M137.526062,54.086117 
	C135.710266,54.435631 133.430771,54.961605 131.150665,54.964195 
	C88.079597,55.013138 45.008446,55.000206 1.468657,55.000084 
	C1.000000,55.000000 1.000000,54.500000 1.000000,54.250000 
	C46.354019,54.006310 91.708038,54.012615 137.526062,54.086117 
z"/>
<path fill="#44A12E" opacity="1.000000" stroke="none" 
	d="
M1.000000,107.250000 
	C1.000000,107.000000 1.491819,107.042549 1.731596,107.101257 
	C1.786460,107.380356 1.580643,107.579102 1.176962,107.878105 
	C1.000000,108.000000 1.000000,107.500000 1.000000,107.250000 
z"/>
<path fill="#44A12E" opacity="1.000000" stroke="none" 
	d="
M318.175201,107.317169 
	C318.028687,107.159966 318.508179,107.042549 318.754089,107.021271 
	C319.000000,107.000000 319.000000,107.500000 319.000000,107.750000 
	C318.754211,107.850212 318.528107,107.674995 318.175201,107.317169 
z"/>
<path fill="#F42934" opacity="1.000000" stroke="none" 
	d="
M149.206421,56.677483 
	C149.157104,56.117588 149.107788,55.557693 149.030487,54.577171 
	C150.717682,54.111931 152.432861,54.067310 154.572845,54.089622 
	C154.958450,54.708157 154.919250,55.259747 154.446869,56.245857 
	C152.411270,56.679409 150.808838,56.678444 149.206421,56.677483 
z"/>
<path fill="#FEF7F8" opacity="1.000000" stroke="none" 
	d="
M148.867264,56.803688 
	C150.808838,56.678444 152.411270,56.679409 154.414246,56.659336 
	C158.542892,57.952221 162.271011,59.266144 165.999115,60.580067 
	C156.023941,60.596905 146.696701,60.263752 140.721252,69.840652 
	C136.477737,76.641762 136.319077,83.852837 140.407639,90.611618 
	C146.433823,100.573448 155.804001,101.674965 166.660339,98.700745 
	C158.350861,106.571510 147.793671,105.290359 139.586594,101.395409 
	C130.961014,97.301849 127.037498,84.319405 128.222641,77.369370 
	C130.083450,66.456863 137.413849,58.973625 148.867264,56.803688 
z"/>
<path fill="#FEFAFA" opacity="1.000000" stroke="none" 
	d="
M186.531830,82.436890 
	C186.213898,84.610336 186.213898,86.600410 186.213898,88.826622 
	C181.938629,85.948303 179.818268,88.549583 178.491104,93.689468 
	C177.240845,88.590515 175.316742,85.945602 169.798004,89.713776 
	C171.783661,84.826706 172.343124,81.139122 164.770050,81.171448 
	C168.230560,79.552490 170.065216,78.694168 172.114426,77.735474 
	C171.351501,75.895187 170.671143,74.254074 169.658463,71.811317 
	C174.450211,74.236168 177.613998,73.624588 178.272324,67.181961 
	C179.514435,70.076485 180.282669,71.866722 181.212219,74.032867 
	C183.026794,73.332756 184.761581,72.663414 187.278870,71.692169 
	C186.417511,74.065247 185.823776,75.701004 185.089233,77.724701 
	C186.866074,78.542480 188.751907,79.410416 191.207855,80.540756 
	C189.442108,81.234711 188.145935,81.744110 186.531830,82.436890 
z"/>
</svg>