<svg version="1.1" id="Layer_1" xmlns="http://www.w3.org/2000/svg" xmlns:xlink="http://www.w3.org/1999/xlink" x="0px" y="0px"
	 width="100%" viewBox="0 0 318 159" enable-background="new 0 0 318 159" xml:space="preserve">
<path fill="#C8102E" opacity="1.000000" stroke="none" 
	d="
M144.000000,1.000000 
	C154.354233,1.000000 164.708450,1.000000 175.505585,1.468044 
	C175.948502,22.816677 175.948502,43.697266 175.948502,64.781380 
	C178.552765,64.781380 180.370026,64.781372 182.187302,64.781372 
	C223.970291,64.781372 265.753265,64.775688 307.536255,64.791740 
	C311.024414,64.793083 314.512482,64.940926 318.128479,65.220848 
	C318.456268,65.675606 318.704132,65.868607 319.000000,66.000000 
	C319.000000,75.354225 319.000000,84.708458 318.796021,94.653107 
	C318.341431,95.446022 318.144257,95.691429 317.541565,96.082130 
	C270.188019,96.184525 223.293411,96.184525 176.000000,96.184525 
	C176.000000,117.804840 176.000000,138.902420 176.000000,160.000000 
	C165.645767,160.000000 155.291550,160.000000 144.494415,159.531967 
	C144.051498,138.183304 144.051498,117.302689 144.051498,96.218636 
	C141.444931,96.218636 139.628754,96.218636 137.812561,96.218636 
	C96.029533,96.218636 54.246506,96.224319 12.463486,96.208267 
	C8.975333,96.206924 5.487236,96.059082 1.871329,95.779144 
	C1.543671,95.324371 1.295823,95.131378 1.000000,95.000000 
	C1.000000,85.645775 1.000000,76.291542 1.203967,66.346916 
	C1.658500,65.554039 1.855606,65.308617 2.458208,64.917862 
	C49.811810,64.815460 96.706451,64.815460 144.000000,64.815460 
	C144.000000,43.195190 144.000000,22.097595 144.000000,1.000000 
z"/>
<path fill="#FCFAFB" opacity="1.000000" stroke="none" 
	d="
M176.458069,160.000000 
	C176.000000,138.902420 176.000000,117.804840 176.000000,96.184525 
	C223.293411,96.184525 270.188019,96.184525 317.790161,96.151703 
	C318.665131,96.079254 318.832550,96.039627 319.000000,96.000000 
	C319.000000,99.361290 319.000000,102.722572 318.531372,106.545944 
	C295.519501,107.008034 272.976288,107.008034 250.433090,107.008034 
	C250.410294,107.281929 250.387512,107.555817 250.364716,107.829712 
	C251.533615,108.313728 252.702530,108.797752 254.071213,109.564629 
	C275.847321,120.564995 297.423676,131.282501 319.000000,142.000000 
	C319.000000,143.714355 319.000000,145.428711 318.652954,147.503571 
	C308.426819,142.910477 298.582916,137.885010 288.658386,133.024277 
	C279.468109,128.523209 270.152802,124.277443 260.964874,119.771759 
	C253.128479,115.928848 245.394852,111.876366 237.285828,107.583763 
	C229.602066,107.250938 222.248230,107.250938 213.712677,107.250938 
	C215.871506,108.259789 216.892075,108.736717 218.089569,109.513855 
	C219.029800,110.123810 219.817932,110.383812 220.552841,110.750481 
	C252.290039,126.585236 284.024384,142.425766 315.745422,158.292862 
	C316.574219,158.707428 317.251862,159.424179 318.000000,160.000000 
	C306.312439,160.000000 294.624878,160.000000 282.429016,159.639923 
	C278.665771,157.647751 275.416229,156.004715 272.154999,154.385269 
	C244.434937,140.620010 216.712723,126.859062 188.657776,112.850014 
	C187.789886,112.994293 186.787903,113.385788 186.788254,113.776375 
	C186.802048,129.184311 186.906952,144.592148 187.000000,160.000000 
	C183.638718,160.000000 180.277420,160.000000 176.458069,160.000000 
z"/>
<path fill="#FCFAFB" opacity="1.000000" stroke="none" 
	d="
M143.541931,1.000000 
	C144.000000,22.097595 144.000000,43.195190 144.000000,64.815460 
	C96.706451,64.815460 49.811810,64.815460 2.209683,64.848282 
	C1.334801,64.920738 1.167400,64.960365 1.000000,65.000000 
	C1.000000,61.638714 1.000000,58.277424 1.468642,54.454052 
	C24.481602,53.991966 47.025921,53.991966 69.570236,53.991966 
	C69.590874,53.717503 69.611504,53.443035 69.632133,53.168571 
	C68.464104,52.684227 67.296066,52.199883 65.927979,51.433014 
	C44.151947,40.433659 22.575974,29.716829 1.000000,19.000000 
	C1.000000,17.285641 1.000000,15.571283 1.346651,13.494569 
	C19.806780,22.178141 37.905880,31.253023 56.039948,40.257484 
	C64.787804,44.601234 73.601486,48.812420 82.715225,53.416428 
	C90.392784,53.749226 97.740486,53.749226 105.088188,53.749226 
	C105.108559,53.516270 105.128937,53.283318 105.149307,53.050362 
	C104.095215,52.735081 103.041122,52.419804 101.666290,51.967850 
	C99.812584,50.876381 98.344765,49.791565 96.737015,48.986061 
	C66.657463,33.915840 36.557693,18.885996 6.478878,3.814319 
	C4.909811,3.028102 3.489542,1.944925 2.000000,1.000000 
	C13.687561,1.000000 25.375122,1.000000 37.573105,1.359549 
	C41.935696,3.638073 45.786167,5.560455 49.640301,7.475478 
	C76.762993,20.952066 103.886429,34.427143 131.342743,48.149803 
	C132.210281,48.005733 133.212112,47.614151 133.211761,47.223465 
	C133.197952,31.815592 133.093048,16.407801 133.000000,1.000000 
	C136.361282,1.000000 139.722580,1.000000 143.541931,1.000000 
z"/>
<path fill="#FBFAFB" opacity="1.000000" stroke="none" 
	d="
M318.000610,65.020699 
	C314.512482,64.940926 311.024414,64.793083 307.536255,64.791740 
	C265.753265,64.775688 223.970291,64.781372 182.187302,64.781372 
	C180.370026,64.781372 178.552765,64.781380 175.948502,64.781380 
	C175.948502,43.697266 175.948502,22.816677 175.974243,1.468044 
	C179.361282,1.000000 182.722580,1.000000 186.419281,1.454589 
	C186.742401,11.171490 186.727631,20.433798 186.718704,29.696112 
	C186.713287,35.319763 186.740967,40.943584 186.703094,46.566990 
	C186.690338,48.462341 186.898239,49.717335 189.338318,47.887184 
	C219.031204,33.196987 248.375580,18.532064 277.699463,3.826268 
	C279.222412,3.062513 280.570496,1.950094 282.000000,1.000000 
	C285.692902,1.000000 289.385834,1.000000 293.486572,1.355013 
	C293.004913,2.156162 292.115265,2.601847 291.226044,3.048498 
	C259.101471,19.185120 226.976898,35.321804 194.539673,51.595512 
	C193.152023,52.252892 192.077026,52.773251 190.038757,53.759892 
	C198.489471,53.759892 205.713272,53.759892 213.280823,53.703331 
	C246.499023,37.193844 279.380615,20.755152 312.223907,4.240261 
	C313.662079,3.517098 314.749298,2.095995 316.000000,1.000000 
	C316.978577,1.000000 317.957123,1.000000 319.000000,1.000000 
	C319.000000,6.686754 319.000000,12.373669 318.651489,18.588802 
	C317.873291,19.366920 317.455261,19.639872 317.012268,19.863407 
	C295.969421,30.481541 274.924377,41.095417 253.513367,51.797340 
	C252.205811,52.329189 251.264511,52.773468 250.323212,53.217743 
	C250.390442,53.478497 250.457687,53.739246 250.524918,54.000000 
	C273.349945,54.000000 296.174988,54.000000 319.000000,54.000000 
	C319.000000,57.361286 319.000000,60.722576 318.748840,64.482773 
	C318.332001,64.928024 318.166321,64.974365 318.000610,65.020699 
z"/>
<path fill="#FBFAFB" opacity="1.000000" stroke="none" 
	d="
M1.999112,95.979309 
	C5.487236,96.059082 8.975333,96.206924 12.463486,96.208267 
	C54.246506,96.224319 96.029533,96.218636 137.812561,96.218636 
	C139.628754,96.218636 141.444931,96.218636 144.051498,96.218636 
	C144.051498,117.302689 144.051498,138.183304 144.025757,159.531967 
	C140.638718,160.000000 137.277420,160.000000 133.580719,159.545410 
	C133.257599,149.828552 133.272400,140.566284 133.281326,131.304016 
	C133.286743,125.680397 133.259293,120.056595 133.296799,114.433220 
	C133.309418,112.540085 133.104218,111.280060 130.662445,113.113365 
	C100.978325,127.799141 71.642715,142.459503 42.327625,157.160812 
	C40.795738,157.929062 39.438534,159.045624 38.000000,160.000000 
	C34.307091,160.000000 30.614182,160.000000 26.509321,159.643875 
	C26.833561,158.904282 27.564844,158.511047 28.306648,158.138763 
	C60.586147,141.939041 92.866585,125.741180 125.459457,109.405617 
	C126.847359,108.747833 127.922707,108.227524 129.965317,107.239197 
	C121.510880,107.239197 114.287155,107.239197 106.719513,107.296326 
	C73.338188,123.890266 40.295895,140.417358 7.278713,156.994476 
	C5.737880,157.768082 4.421122,158.987961 3.000000,160.000000 
	C2.333332,159.363373 1.109541,158.744553 1.088550,158.087311 
	C0.927420,153.042221 1.000000,147.989655 1.349134,142.413879 
	C2.127371,141.637451 2.544380,141.362579 2.987318,141.139084 
	C24.030060,130.520966 45.075043,119.907295 66.486084,109.204315 
	C67.794228,108.671005 68.736061,108.226517 69.677895,107.782021 
	C69.611336,107.521347 69.544769,107.260674 69.478210,107.000000 
	C46.652138,107.000000 23.826069,107.000000 1.000000,107.000000 
	C1.000000,103.638710 1.000000,100.277428 1.251110,96.517227 
	C1.667851,96.071983 1.833482,96.025642 1.999112,95.979309 
z"/>
<path fill="#012069" opacity="1.000000" stroke="none" 
	d="
M188.991165,113.096817 
	C216.712723,126.859062 244.434937,140.620010 272.154999,154.385269 
	C275.416229,156.004715 278.665771,157.647751 281.960358,159.639923 
	C250.979111,160.000000 219.958206,160.000000 188.468262,159.531342 
	C187.999084,145.832764 187.955826,132.602554 188.043228,119.373207 
	C188.057053,117.279083 188.660385,115.188850 188.991165,113.096817 
z"/>
<path fill="#012069" opacity="1.000000" stroke="none" 
	d="
M281.531342,1.000000 
	C280.570496,1.950094 279.222412,3.062513 277.699463,3.826268 
	C248.375580,18.532064 219.031204,33.196987 189.167236,47.512787 
	C188.428543,45.198162 188.035446,43.241814 188.027527,41.283905 
	C187.973221,27.856117 187.999603,14.428006 188.000000,1.000000 
	C219.020889,1.000000 250.041794,1.000000 281.531342,1.000000 
z"/>
<path fill="#012069" opacity="1.000000" stroke="none" 
	d="
M131.009628,47.902706 
	C103.886429,34.427143 76.762993,20.952066 49.640301,7.475478 
	C45.786167,5.560455 41.935696,3.638073 38.041763,1.359549 
	C69.020897,1.000000 100.041786,1.000000 131.531738,1.468657 
	C132.000931,15.167039 132.044159,28.397047 131.956818,41.626194 
	C131.942978,43.720356 131.340149,45.810635 131.009628,47.902706 
z"/>
<path fill="#012069" opacity="1.000000" stroke="none" 
	d="
M38.468658,160.000000 
	C39.438534,159.045624 40.795738,157.929062 42.327625,157.160812 
	C71.642715,142.459503 100.978325,127.799141 130.833420,113.487755 
	C131.571823,115.802307 131.964584,117.758675 131.972504,119.716591 
	C132.026764,133.144211 132.000412,146.572159 132.000000,160.000000 
	C100.979103,160.000000 69.958214,160.000000 38.468658,160.000000 
z"/>
<path fill="#C91632" opacity="1.000000" stroke="none" 
	d="
M125.146904,109.543091 
	C92.866585,125.741180 60.586147,141.939041 28.306648,158.138763 
	C27.564844,158.511047 26.833561,158.904282 26.048685,159.643875 
	C18.645748,160.000000 11.291496,160.000000 3.468623,160.000000 
	C4.421122,158.987961 5.737880,157.768082 7.278713,156.994476 
	C40.295895,140.417358 73.338188,123.890266 107.063126,107.514618 
	C110.897995,107.788605 114.061707,107.741959 117.187691,108.062881 
	C119.863213,108.337563 122.495499,109.033485 125.146904,109.543091 
z"/>
<path fill="#C91532" opacity="1.000000" stroke="none" 
	d="
M315.531433,1.000000 
	C314.749298,2.095995 313.662079,3.517098 312.223907,4.240261 
	C279.380615,20.755152 246.499023,37.193844 212.936798,53.485718 
	C209.101685,53.212036 205.937988,53.258869 202.811981,52.938160 
	C200.136322,52.663658 197.503906,51.967926 194.852356,51.458496 
	C226.976898,35.321804 259.101471,19.185120 291.226044,3.048498 
	C292.115265,2.601847 293.004913,2.156162 293.947205,1.355013 
	C301.020966,1.000000 308.041901,1.000000 315.531433,1.000000 
z"/>
<path fill="#012069" opacity="1.000000" stroke="none" 
	d="
M1.000000,19.468658 
	C22.575974,29.716829 44.151947,40.433659 65.626511,51.741035 
	C63.578583,52.554592 61.632523,52.966640 59.685463,52.971397 
	C40.123737,53.019234 20.561846,53.000210 1.000000,53.000000 
	C1.000000,41.979103 1.000000,30.958210 1.000000,19.468658 
z"/>
<path fill="#012069" opacity="1.000000" stroke="none" 
	d="
M253.879608,51.709763 
	C274.924377,41.095417 295.969421,30.481541 317.012268,19.863407 
	C317.455261,19.639872 317.873291,19.366920 318.651489,19.058510 
	C319.000000,30.020895 319.000000,41.041790 318.531342,52.531654 
	C298.690063,53.000584 279.317261,53.038555 259.945099,52.943981 
	C257.921326,52.934097 255.901352,52.139999 253.879608,51.709763 
z"/>
<path fill="#012069" opacity="1.000000" stroke="none" 
	d="
M319.000000,141.531342 
	C297.423676,131.282501 275.847321,120.564995 254.372772,109.256699 
	C256.421295,108.443756 258.367584,108.033302 260.314850,108.028557 
	C279.876495,107.980881 299.438263,107.999809 319.000000,108.000000 
	C319.000000,119.020897 319.000000,130.041794 319.000000,141.531342 
z"/>
<path fill="#012069" opacity="1.000000" stroke="none" 
	d="
M66.119774,109.293121 
	C45.075043,119.907295 24.030060,130.520966 2.987318,141.139084 
	C2.544380,141.362579 2.127371,141.637451 1.349134,141.944183 
	C1.000000,130.979111 1.000000,119.958214 1.468657,108.468323 
	C21.310059,107.999367 40.682987,107.961319 60.055267,108.056099 
	C62.078739,108.065994 64.098366,108.861893 66.119774,109.293121 
z"/>
<path fill="#C91632" opacity="1.000000" stroke="none" 
	d="
M1.500000,1.000000 
	C3.489542,1.944925 4.909811,3.028102 6.478878,3.814319 
	C36.557693,18.885996 66.657463,33.915840 96.737015,48.986061 
	C98.344765,49.791565 99.812584,50.876381 101.325684,52.198349 
	C94.999001,52.738232 88.692184,52.910934 82.385361,53.083633 
	C73.601486,48.812420 64.787804,44.601234 56.039948,40.257484 
	C37.905880,31.253023 19.806780,22.178141 1.346651,13.066107 
	C1.000000,9.000000 1.000000,5.000000 1.500000,1.000000 
z"/>
<path fill="#C91632" opacity="1.000000" stroke="none" 
	d="
M318.500000,160.000000 
	C317.251862,159.424179 316.574219,158.707428 315.745422,158.292862 
	C284.024384,142.425766 252.290039,126.585236 220.552841,110.750481 
	C219.817932,110.383812 219.029800,110.123810 218.402664,109.226013 
	C224.897812,108.397514 231.256775,108.157051 237.615753,107.916595 
	C245.394852,111.876366 253.128479,115.928848 260.964874,119.771759 
	C270.152802,124.277443 279.468109,128.523209 288.658386,133.024277 
	C298.582916,137.885010 308.426819,142.910477 318.652954,147.932037 
	C319.000000,152.000000 319.000000,156.000000 318.500000,160.000000 
z"/>
<path fill="#00005F" opacity="1.000000" stroke="none" 
	d="
M66.486084,109.204308 
	C64.098366,108.861893 62.078739,108.065994 60.055267,108.056099 
	C40.682987,107.961319 21.310059,107.999367 1.468657,107.999664 
	C1.000000,108.000000 1.000000,107.500000 1.000000,107.250000 
	C23.826069,107.000000 46.652138,107.000000 69.478210,107.000000 
	C69.544769,107.260674 69.611336,107.521347 69.677895,107.782021 
	C68.736061,108.226517 67.794228,108.671005 66.486084,109.204308 
z"/>
<path fill="#00005F" opacity="1.000000" stroke="none" 
	d="
M253.513367,51.797337 
	C255.901352,52.139999 257.921326,52.934097 259.945099,52.943981 
	C279.317261,53.038555 298.690063,53.000584 318.531342,53.000313 
	C319.000000,53.000000 319.000000,53.500000 319.000000,53.750000 
	C296.174988,54.000000 273.349945,54.000000 250.524918,54.000000 
	C250.457687,53.739246 250.390442,53.478497 250.323212,53.217743 
	C251.264511,52.773468 252.205811,52.329189 253.513367,51.797337 
z"/>
<path fill="#00005F" opacity="1.000000" stroke="none" 
	d="
M319.000000,107.750000 
	C299.438263,107.999809 279.876495,107.980881 260.314850,108.028557 
	C258.367584,108.033302 256.421295,108.443756 254.172974,108.973839 
	C252.702530,108.797752 251.533615,108.313728 250.364716,107.829712 
	C250.387512,107.555817 250.410294,107.281929 250.433090,107.008034 
	C272.976288,107.008034 295.519501,107.008034 318.531372,107.004013 
	C319.000000,107.000000 319.000000,107.500000 319.000000,107.750000 
z"/>
<path fill="#00005F" opacity="1.000000" stroke="none" 
	d="
M1.000000,53.250000 
	C20.561846,53.000210 40.123737,53.019234 59.685463,52.971397 
	C61.632523,52.966640 63.578583,52.554592 65.826569,52.023560 
	C67.296066,52.199883 68.464104,52.684227 69.632133,53.168571 
	C69.611504,53.443035 69.590874,53.717503 69.570236,53.991966 
	C47.025921,53.991966 24.481602,53.991966 1.468642,53.995983 
	C1.000000,54.000000 1.000000,53.500000 1.000000,53.250000 
z"/>
<path fill="#000761" opacity="1.000000" stroke="none" 
	d="
M132.250000,160.000000 
	C132.000412,146.572159 132.026764,133.144211 131.972504,119.716591 
	C131.964584,117.758675 131.571823,115.802307 131.186157,113.470833 
	C133.104218,111.280060 133.309418,112.540085 133.296799,114.433220 
	C133.259293,120.056595 133.286743,125.680397 133.281326,131.304016 
	C133.272400,140.566284 133.257599,149.828552 133.122650,159.545410 
	C133.000000,160.000000 132.500000,160.000000 132.250000,160.000000 
z"/>
<path fill="#000761" opacity="1.000000" stroke="none" 
	d="
M188.657776,112.850021 
	C188.660385,115.188850 188.057053,117.279083 188.043228,119.373207 
	C187.955826,132.602554 187.999084,145.832764 187.999603,159.531342 
	C188.000000,160.000000 187.500000,160.000000 187.250000,160.000000 
	C186.906952,144.592148 186.802048,129.184311 186.788254,113.776375 
	C186.787903,113.385788 187.789886,112.994293 188.657776,112.850021 
z"/>
<path fill="#000761" opacity="1.000000" stroke="none" 
	d="
M187.750000,1.000000 
	C187.999603,14.428006 187.973221,27.856117 188.027527,41.283905 
	C188.035446,43.241814 188.428543,45.198162 188.814499,47.529633 
	C186.898239,49.717335 186.690338,48.462341 186.703094,46.566990 
	C186.740967,40.943584 186.713287,35.319763 186.718704,29.696112 
	C186.727631,20.433798 186.742401,11.171490 186.877350,1.454589 
	C187.000000,1.000000 187.500000,1.000000 187.750000,1.000000 
z"/>
<path fill="#000761" opacity="1.000000" stroke="none" 
	d="
M131.342743,48.149803 
	C131.340149,45.810635 131.942978,43.720356 131.956818,41.626194 
	C132.044159,28.397047 132.000931,15.167039 132.000397,1.468657 
	C132.000000,1.000000 132.500000,1.000000 132.750000,1.000000 
	C133.093048,16.407801 133.197952,31.815592 133.211761,47.223465 
	C133.212112,47.614151 132.210281,48.005733 131.342743,48.149803 
z"/>
<path fill="#C50018" opacity="1.000000" stroke="none" 
	d="
M1.871329,95.779144 
	C1.833482,96.025642 1.667851,96.071983 1.251110,96.059158 
	C1.000000,96.000000 1.000000,95.500000 1.000000,95.250000 
	C1.295823,95.131378 1.543671,95.324371 1.871329,95.779144 
z"/>
<path fill="#C50018" opacity="1.000000" stroke="none" 
	d="
M319.000000,95.750000 
	C318.832550,96.039627 318.665131,96.079254 318.249084,96.049309 
	C318.144257,95.691429 318.341431,95.446022 318.796021,95.121765 
	C319.000000,95.000000 319.000000,95.500000 319.000000,95.750000 
z"/>
<path fill="#C50018" opacity="1.000000" stroke="none" 
	d="
M318.128479,65.220848 
	C318.166321,64.974365 318.332001,64.928024 318.748840,64.940842 
	C319.000000,65.000000 319.000000,65.500000 319.000000,65.750000 
	C318.704132,65.868607 318.456268,65.675606 318.128479,65.220848 
z"/>
<path fill="#C50018" opacity="1.000000" stroke="none" 
	d="
M1.000000,65.250000 
	C1.167400,64.960365 1.334801,64.920738 1.750726,64.950684 
	C1.855606,65.308617 1.658500,65.554039 1.203967,65.878258 
	C1.000000,66.000000 1.000000,65.500000 1.000000,65.250000 
z"/>
<path fill="#C60618" opacity="1.000000" stroke="none" 
	d="
M237.285828,107.583771 
	C231.256775,108.157051 224.897812,108.397514 218.225739,108.925804 
	C216.892075,108.736717 215.871506,108.259789 213.712677,107.250938 
	C222.248230,107.250938 229.602066,107.250938 237.285828,107.583771 
z"/>
<path fill="#C60618" opacity="1.000000" stroke="none" 
	d="
M82.715225,53.416431 
	C88.692184,52.910934 94.999001,52.738232 101.646423,52.335026 
	C103.041122,52.419804 104.095215,52.735081 105.149307,53.050362 
	C105.128937,53.283318 105.108559,53.516270 105.088188,53.749226 
	C97.740486,53.749226 90.392784,53.749226 82.715225,53.416431 
z"/>
<path fill="#C60516" opacity="1.000000" stroke="none" 
	d="
M194.539673,51.595516 
	C197.503906,51.967926 200.136322,52.663658 202.811981,52.938160 
	C205.937988,53.258869 209.101685,53.212036 212.593048,53.542278 
	C205.713272,53.759892 198.489471,53.759892 190.038757,53.759892 
	C192.077026,52.773251 193.152023,52.252892 194.539673,51.595516 
z"/>
<path fill="#C60516" opacity="1.000000" stroke="none" 
	d="
M125.459457,109.405624 
	C122.495499,109.033485 119.863213,108.337563 117.187691,108.062881 
	C114.061707,107.741959 110.897995,107.788605 107.407043,107.457489 
	C114.287155,107.239197 121.510880,107.239197 129.965317,107.239197 
	C127.922707,108.227524 126.847359,108.747833 125.459457,109.405624 
z"/>
</svg>