<svg version="1.1" id="Layer_1" xmlns="http://www.w3.org/2000/svg" xmlns:xlink="http://www.w3.org/1999/xlink" x="0px" y="0px"
	 width="100%" viewBox="0 0 896 768" enable-background="new 0 0 896 768" xml:space="preserve">
<path fill="#fff" opacity="1.000000" stroke="none" 
	d="
M541.999878,698.407593 
	C404.691681,698.407898 267.882935,698.201294 131.075729,698.571533 
	C101.540756,698.651428 77.746933,675.723877 77.765717,645.157898 
	C77.852875,503.350647 77.761757,361.543365 77.812042,219.736115 
	C77.825645,181.369675 107.185265,152.166046 146.298706,152.006622 
	C206.453308,151.761414 266.609589,151.934967 326.765167,151.929031 
	C329.764587,151.928726 332.769714,151.791534 335.761902,151.933929 
	C338.988403,152.087463 340.512970,150.903000 341.021393,147.520462 
	C343.114868,133.593170 347.426666,120.393951 353.917511,107.825035 
	C387.487152,42.820576 473.594666,27.279364 527.570923,76.559593 
	C547.754211,94.986946 559.829041,117.785583 564.421509,144.631454 
	C565.665466,151.903336 565.597595,151.911331 573.164978,151.911179 
	C635.320190,151.909927 697.475769,151.794846 759.630493,151.969376 
	C782.919983,152.034775 801.967957,161.247345 815.799683,180.301804 
	C824.627502,192.462906 828.195557,206.332031 828.198792,221.188293 
	C828.224060,336.833710 828.217712,452.479095 828.217896,568.124512 
	C828.217957,594.286255 828.511719,620.452881 828.101746,646.608276 
	C827.777954,667.263794 818.292908,682.893921 800.011414,692.847961 
	C792.390259,696.997498 784.134399,698.455383 775.455933,698.447266 
	C697.803955,698.374512 620.151978,698.406250 541.999878,698.407593 
M185.699722,345.931976 
	C159.546860,336.722382 133.394012,327.512787 107.397423,318.358215 
	C105.864288,320.842468 106.308594,322.720673 106.308311,324.505035 
	C106.291435,430.835083 106.295395,537.165161 106.312668,643.495178 
	C106.315514,661.035828 115.286835,670.045410 132.651932,670.044861 
	C346.312012,670.037720 559.972046,670.030701 773.632141,670.019226 
	C775.297974,670.019165 776.968994,670.031921 778.628723,669.913818 
	C789.930054,669.110413 799.611816,659.108521 799.714783,647.825623 
	C799.842529,633.830505 799.709473,619.833191 799.708740,605.836792 
	C799.703674,512.339661 799.708374,418.842560 799.673401,325.345428 
	C799.672607,323.252502 800.264709,321.032684 798.930176,318.939301 
	C796.142151,318.618195 793.785889,320.043762 791.340210,320.907379 
	C725.238159,344.248566 659.150085,367.629059 593.059326,391.002380 
	C561.505432,402.161530 529.983643,413.413391 498.361938,424.377045 
	C493.592468,426.030670 491.858765,428.412659 492.167267,433.407227 
	C492.587738,440.213806 492.377686,447.069641 492.214905,453.899078 
	C492.051575,460.751282 488.367462,464.357513 481.557831,464.378479 
	C462.725250,464.436432 443.892273,464.431610 425.059692,464.375366 
	C417.293182,464.352173 413.861755,460.866882 413.771118,453.008636 
	C413.688446,445.843109 413.612671,438.672272 413.805267,431.511078 
	C413.900635,427.964752 412.653534,426.091949 409.204834,424.940857 
	C398.625549,421.409668 388.150848,417.565186 377.634888,413.844238 
	C313.901978,391.293182 250.168869,368.742706 185.699722,345.931976 
M405.036285,393.357880 
	C405.825500,393.622589 406.655426,393.803894 407.397003,394.166168 
	C411.049561,395.950470 413.879211,396.183441 415.256470,391.255127 
	C415.955200,388.754944 418.246033,387.105011 420.879242,386.836853 
	C425.173645,386.399506 429.506042,386.176544 433.823761,386.156586 
	C446.918182,386.095947 460.026855,385.825775 473.102814,386.335083 
	C480.717621,386.631683 490.546295,383.599243 492.229370,395.754578 
	C494.647095,396.125183 496.319183,395.263336 498.008911,394.659454 
	C518.542358,387.321014 539.036682,379.872314 559.594116,372.601837 
	C637.922302,344.899780 716.261169,317.227905 794.636963,289.660858 
	C798.366516,288.349091 799.834167,286.637482 799.794250,282.556702 
	C799.593811,262.064362 799.734863,241.568893 799.710571,221.074570 
	C799.681702,196.677414 783.343933,180.371338 758.910889,180.346420 
	C730.918640,180.317871 702.926331,180.316483 674.934082,180.317276 
	C498.982605,180.322281 323.031097,180.323151 147.079620,180.347961 
	C122.655151,180.351410 106.384048,196.622360 106.315590,221.061111 
	C106.259117,241.222061 106.460907,261.385437 106.186592,281.542816 
	C106.120834,286.375397 107.688789,288.491547 112.246796,290.079834 
	C157.214951,305.749603 202.100067,321.657684 247.003311,337.513550 
	C299.439392,356.029327 351.870056,374.560333 405.036285,393.357880 
M499.500000,151.935181 
	C510.326935,151.924606 521.154419,151.849213 531.980469,151.939590 
	C535.632812,151.970078 537.025696,151.053391 536.174500,146.957626 
	C533.384155,133.531647 528.346863,121.113472 519.974854,110.261147 
	C499.917511,84.261375 473.372406,72.063423 440.814087,76.910759 
	C405.063202,82.233398 378.044617,109.208435 370.376373,144.554153 
	C368.789978,151.866409 368.789948,151.885666 376.572052,151.889664 
	C417.214691,151.910492 457.857361,151.920715 499.500000,151.935181 
z"/>
</svg>